<?xml version="1.0" encoding="UTF-8" standalone="no"?>
<!DOCTYPE svg PUBLIC "-//W3C//DTD SVG 1.1//EN"
 "http://www.w3.org/Graphics/SVG/1.1/DTD/svg11.dtd">
<!-- Generated by graphviz version 2.38.0 (20140413.2041)
 -->
<!-- Title: G Pages: 1 -->
<svg width="218pt" height="404pt"
 viewBox="0.00 0.00 217.55 404.00" xmlns="http://www.w3.org/2000/svg" xmlns:xlink="http://www.w3.org/1999/xlink">
<g id="graph0" class="graph" transform="scale(1 1) rotate(0) translate(4 400)">
<title>G</title>
<polygon fill="white" stroke="none" points="-4,4 -4,-400 213.551,-400 213.551,4 -4,4"/>
<!-- input -->
<g id="node1" class="node"><title>input</title>
<ellipse fill="none" stroke="black" cx="55.0181" cy="-378" rx="30.7789" ry="18"/>
<text text-anchor="middle" x="55.0181" y="-373.8" font-family="Times,serif" font-size="14.00">input</text>
</g>
<!-- input_layer -->
<g id="node3" class="node"><title>input_layer</title>
<ellipse fill="none" stroke="black" cx="55.0181" cy="-306" rx="55.0362" ry="18"/>
<text text-anchor="middle" x="55.0181" y="-301.8" font-family="Times,serif" font-size="14.00">input_layer</text>
</g>
<!-- input&#45;&gt;input_layer -->
<g id="edge1" class="edge"><title>input&#45;&gt;input_layer</title>
<path fill="none" stroke="black" d="M55.0181,-359.697C55.0181,-351.983 55.0181,-342.712 55.0181,-334.112"/>
<polygon fill="black" stroke="black" points="58.5182,-334.104 55.0181,-324.104 51.5182,-334.104 58.5182,-334.104"/>
</g>
<!-- redshift -->
<g id="node2" class="node"><title>redshift</title>
<ellipse fill="none" stroke="black" cx="169.018" cy="-306" rx="40.5654" ry="18"/>
<text text-anchor="middle" x="169.018" y="-301.8" font-family="Times,serif" font-size="14.00">redshift</text>
</g>
<!-- hidden2 -->
<g id="node4" class="node"><title>hidden2</title>
<ellipse fill="none" stroke="black" cx="112.018" cy="-234" rx="42.299" ry="18"/>
<text text-anchor="middle" x="112.018" y="-229.8" font-family="Times,serif" font-size="14.00">hidden2</text>
</g>
<!-- redshift&#45;&gt;hidden2 -->
<g id="edge3" class="edge"><title>redshift&#45;&gt;hidden2</title>
<path fill="none" stroke="black" d="M155.798,-288.765C148.604,-279.93 139.565,-268.83 131.572,-259.014"/>
<polygon fill="black" stroke="black" points="134.195,-256.692 125.167,-251.147 128.767,-261.112 134.195,-256.692"/>
</g>
<!-- input_layer&#45;&gt;hidden2 -->
<g id="edge2" class="edge"><title>input_layer&#45;&gt;hidden2</title>
<path fill="none" stroke="black" d="M68.5263,-288.411C75.554,-279.781 84.2818,-269.062 92.0704,-259.497"/>
<polygon fill="black" stroke="black" points="95.0066,-261.434 98.6069,-251.47 89.5785,-257.014 95.0066,-261.434"/>
</g>
<!-- hidden3 -->
<g id="node5" class="node"><title>hidden3</title>
<ellipse fill="none" stroke="black" cx="112.018" cy="-162" rx="42.299" ry="18"/>
<text text-anchor="middle" x="112.018" y="-157.8" font-family="Times,serif" font-size="14.00">hidden3</text>
</g>
<!-- hidden2&#45;&gt;hidden3 -->
<g id="edge4" class="edge"><title>hidden2&#45;&gt;hidden3</title>
<path fill="none" stroke="black" d="M112.018,-215.697C112.018,-207.983 112.018,-198.712 112.018,-190.112"/>
<polygon fill="black" stroke="black" points="115.518,-190.104 112.018,-180.104 108.518,-190.104 115.518,-190.104"/>
</g>
<!-- hidden4 -->
<g id="node6" class="node"><title>hidden4</title>
<ellipse fill="none" stroke="black" cx="112.018" cy="-90" rx="42.299" ry="18"/>
<text text-anchor="middle" x="112.018" y="-85.8" font-family="Times,serif" font-size="14.00">hidden4</text>
</g>
<!-- hidden3&#45;&gt;hidden4 -->
<g id="edge5" class="edge"><title>hidden3&#45;&gt;hidden4</title>
<path fill="none" stroke="black" d="M112.018,-143.697C112.018,-135.983 112.018,-126.712 112.018,-118.112"/>
<polygon fill="black" stroke="black" points="115.518,-118.104 112.018,-108.104 108.518,-118.104 115.518,-118.104"/>
</g>
<!-- output -->
<g id="node7" class="node"><title>output</title>
<ellipse fill="none" stroke="black" cx="112.018" cy="-18" rx="35.9368" ry="18"/>
<text text-anchor="middle" x="112.018" y="-13.8" font-family="Times,serif" font-size="14.00">output</text>
</g>
<!-- hidden4&#45;&gt;output -->
<g id="edge6" class="edge"><title>hidden4&#45;&gt;output</title>
<path fill="none" stroke="black" d="M112.018,-71.6966C112.018,-63.9827 112.018,-54.7125 112.018,-46.1124"/>
<polygon fill="black" stroke="black" points="115.518,-46.1043 112.018,-36.1043 108.518,-46.1044 115.518,-46.1043"/>
</g>
</g>
</svg>
